<svg width="512" height="512" viewBox="0 0 512 512" xmlns="http://www.w3.org/2000/svg">
  <defs>
    <linearGradient id="gradient" x1="0%" y1="0%" x2="100%" y2="100%">
      <stop offset="0%" style="stop-color:#3B82F6;stop-opacity:1" />
      <stop offset="100%" style="stop-color:#1D4ED8;stop-opacity:1" />
    </linearGradient>
  </defs>
  
  <!-- Background -->
  <rect width="512" height="512" rx="80" ry="80" fill="url(#gradient)"/>
  
  <!-- Chat bubble -->
  <circle cx="256" cy="220" r="100" fill="white" opacity="0.9"/>
  <path d="M256 320 L230 350 L282 350 Z" fill="white" opacity="0.9"/>
  
  <!-- Fork and knife icons inside bubble -->
  <g transform="translate(220,185)">
    <!-- Fork -->
    <path d="M8 5 L8 45 M8 5 L4 15 M8 5 L12 15 M8 5 L8 20" stroke="#3B82F6" stroke-width="3" fill="none"/>
    <!-- Knife -->
    <path d="M24 5 L24 45 M24 5 L20 20" stroke="#3B82F6" stroke-width="3" fill="none"/>
    <!-- Plate -->
    <circle cx="16" cy="55" r="15" stroke="#3B82F6" stroke-width="2" fill="none"/>
  </g>
  
  <!-- AI sparkles -->
  <circle cx="180" cy="150" r="4" fill="white"/>
  <circle cx="340" cy="170" r="3" fill="white"/>
  <circle cx="160" cy="290" r="3" fill="white"/>
  <circle cx="360" cy="280" r="4" fill="white"/>
  
  <!-- Bottom accent -->
  <path d="M100 400 Q256 360 412 400 L412 450 Q256 410 100 450 Z" fill="white" opacity="0.2"/>
</svg>